solid worm_gear
    facet normal 0.982287 0.187381 -2.2345e-09
        outer loop
        vertex 15 0 0
        vertex 13.9466 5.52187 0
        vertex 15 7.15493e-07 60
        endloop
    endfacet
    facet normal 0.982287 0.187381 -1.41375e-09
        outer loop
        vertex 15 7.15493e-07 60
        vertex 13.9466 5.52187 0
        vertex 13.9466 5.52187 60
        endloop
    endfacet
    facet normal 0.844328 0.535827 -4.25837e-09
        outer loop
        vertex 13.9466 5.52187 0
        vertex 10.9345 10.2682 0
        vertex 13.9466 5.52187 60
        endloop
    endfacet
    facet normal 0.844328 0.535827 5.65498e-09
        outer loop
        vertex 13.9466 5.52187 60
        vertex 10.9345 10.2682 0
        vertex 10.9345 10.2682 60
        endloop
    endfacet
    facet normal 0.587785 0.809017 -3.51639e-09
        outer loop
        vertex 10.9345 10.2682 0
        vertex 6.38669 13.5724 0
        vertex 10.9345 10.2682 60
        endloop
    endfacet
    facet normal 0.587785 0.809017 2.82749e-09
        outer loop
        vertex 10.9345 10.2682 60
        vertex 6.38669 13.5724 0
        vertex 6.38669 13.5724 60
        endloop
    endfacet
    facet normal 0.24869 0.968583 1.97641e-09
        outer loop
        vertex 6.38669 13.5724 0
        vertex 0.941856 14.9704 0
        vertex 6.38669 13.5724 60
        endloop
    endfacet
    facet normal 0.24869 0.968583 4.24124e-09
        outer loop
        vertex 6.38669 13.5724 60
        vertex 0.941856 14.9704 0
        vertex 0.941855 14.9704 60
        endloop
    endfacet
    facet normal -0.9072 0.4207 -1.08147e-08
        outer loop
        vertex 0.941856 14.9704 0
        vertex -2.47214 7.60845 0
        vertex 0.941855 14.9704 60
        endloop
    endfacet
    facet normal -0.9072 0.4207 -7.83464e-09
        outer loop
        vertex 0.941855 14.9704 60
        vertex -2.47214 7.60845 0
        vertex -2.47214 7.60845 60
        endloop
    endfacet
    facet normal -0.684547 0.728969 -5.44029e-09
        outer loop
        vertex -2.47214 7.60845 0
        vertex -7.43821 2.945 0
        vertex -2.47214 7.60845 60
        endloop
    endfacet
    facet normal -0.684547 0.728969 0
        outer loop
        vertex -2.47214 7.60845 60
        vertex -7.43821 2.945 0
        vertex -7.43821 2.94499 60
        endloop
    endfacet
    facet normal -0.998027 -0.0627906 -2.49508e-10
        outer loop
        vertex -7.43821 2.945 0
        vertex -7.01045 -3.85403 0
        vertex -7.43821 2.94499 60
        endloop
    endfacet
    facet normal -0.998027 -0.0627906 0
        outer loop
        vertex -7.43821 2.94499 60
        vertex -7.01045 -3.85403 0
        vertex -7.01045 -3.85403 60
        endloop
    endfacet
    facet normal -0.587785 -0.809017 -3.21474e-09
        outer loop
        vertex -7.01045 -3.85403 0
        vertex -1.49905 -7.8583 0
        vertex -7.01045 -3.85403 60
        endloop
    endfacet
    facet normal -0.587785 -0.809017 4.66632e-09
        outer loop
        vertex -7.01045 -3.85403 60
        vertex -1.49905 -7.8583 0
        vertex -1.49905 -7.8583 60
        endloop
    endfacet
    facet normal 0.24869 -0.968583 -1.48231e-09
        outer loop
        vertex -1.49905 -7.8583 0
        vertex 5.09939 -6.1641 0
        vertex -1.49905 -7.8583 60
        endloop
    endfacet
    facet normal 0.24869 -0.968583 4.66632e-09
        outer loop
        vertex -1.49905 -7.8583 60
        vertex 5.09939 -6.1641 0
        vertex 5.09939 -6.1641 60
        endloop
    endfacet
    facet normal 0.528532 -0.848913 2.54616e-09
        outer loop
        vertex 5.09939 -6.1641 0
        vertex 15 0 0
        vertex 5.09939 -6.1641 60
        endloop
    endfacet
    facet normal 0.528532 -0.848913 1.09029e-08
        outer loop
        vertex 5.09939 -6.1641 60
        vertex 15 0 0
        vertex 15 7.15493e-07 60
        endloop
    endfacet
    facet normal 0 0 -1
        outer loop
        vertex 0 0 0
        vertex 13.9466 5.52187 0
        vertex 15 0 0
        endloop
    endfacet
    facet normal 0 0 -1
        outer loop
        vertex 0 0 0
        vertex 10.9345 10.2682 0
        vertex 13.9466 5.52187 0
        endloop
    endfacet
    facet normal 0 0 -1
        outer loop
        vertex 0 0 0
        vertex 6.38669 13.5724 0
        vertex 10.9345 10.2682 0
        endloop
    endfacet
    facet normal 0 0 -1
        outer loop
        vertex 0 0 0
        vertex 0.941856 14.9704 0
        vertex 6.38669 13.5724 0
        endloop
    endfacet
    facet normal 0 0 -1
        outer loop
        vertex 0 0 0
        vertex -2.47214 7.60845 0
        vertex 0.941856 14.9704 0
        endloop
    endfacet
    facet normal 0 0 -1
        outer loop
        vertex 0 0 0
        vertex -7.43821 2.945 0
        vertex -2.47214 7.60845 0
        endloop
    endfacet
    facet normal 0 0 -1
        outer loop
        vertex 0 0 0
        vertex -7.01045 -3.85403 0
        vertex -7.43821 2.945 0
        endloop
    endfacet
    facet normal 0 0 -1
        outer loop
        vertex 0 0 0
        vertex -1.49905 -7.8583 0
        vertex -7.01045 -3.85403 0
        endloop
    endfacet
    facet normal 0 0 -1
        outer loop
        vertex 0 0 0
        vertex 5.09939 -6.1641 0
        vertex -1.49905 -7.8583 0
        endloop
    endfacet
    facet normal 0 0 -1
        outer loop
        vertex 0 0 0
        vertex 15 0 0
        vertex 5.09939 -6.1641 0
        endloop
    endfacet
    facet normal 0 0 1
        outer loop
        vertex 0 0 60
        vertex 15 7.15493e-07 60
        vertex 13.9466 5.52187 60
        endloop
    endfacet
    facet normal 0 0 1
        outer loop
        vertex 0 0 60
        vertex 13.9466 5.52187 60
        vertex 10.9345 10.2682 60
        endloop
    endfacet
    facet normal 0 0 1
        outer loop
        vertex 0 0 60
        vertex 10.9345 10.2682 60
        vertex 6.38669 13.5724 60
        endloop
    endfacet
    facet normal 0 0 1
        outer loop
        vertex 0 0 60
        vertex 6.38669 13.5724 60
        vertex 0.941855 14.9704 60
        endloop
    endfacet
    facet normal 0 0 1
        outer loop
        vertex 0 0 60
        vertex 0.941855 14.9704 60
        vertex -2.47214 7.60845 60
        endloop
    endfacet
    facet normal 0 0 1
        outer loop
        vertex 0 0 60
        vertex -2.47214 7.60845 60
        vertex -7.43821 2.94499 60
        endloop
    endfacet
    facet normal 0 0 1
        outer loop
        vertex 0 0 60
        vertex -7.43821 2.94499 60
        vertex -7.01045 -3.85403 60
        endloop
    endfacet
    facet normal 0 0 1
        outer loop
        vertex 0 0 60
        vertex -7.01045 -3.85403 60
        vertex -1.49905 -7.8583 60
        endloop
    endfacet
    facet normal 0 0 1
        outer loop
        vertex 0 0 60
        vertex -1.49905 -7.8583 60
        vertex 5.09939 -6.1641 60
        endloop
    endfacet
    facet normal 0 0 1
        outer loop
        vertex 0 0 60
        vertex 5.09939 -6.1641 60
        vertex 15 7.15493e-07 60
        endloop
    endfacet
endsolid worm_gear
